<svg width="87" height="101" viewBox="0 0 87 101" fill="none" xmlns="http://www.w3.org/2000/svg">
<path d="M56.49 49.76C56.4721 49.8838 56.4385 50.0047 56.39 50.12C55.4387 52.0978 54.7656 54.1977 54.39 56.36C54.3954 56.4065 54.3954 56.4535 54.39 56.5C53.6769 60.1838 53.8241 63.9824 54.82 67.6C52.5218 69.8818 51.0238 72.8462 50.55 76.05C49.8703 79.8526 49.466 83.6992 49.34 87.56C49.24 88.75 49.8 89.35 51.03 89.39H52.44C52.9611 89.441 53.487 89.3761 53.98 89.2C53.909 86.1752 54.5966 83.1808 55.98 80.49C57.207 78.0617 57.7399 75.3418 57.52 72.63C57.52 72.63 57.52 72.63 57.4 72.78C57.3331 72.8596 57.2761 72.9469 57.23 73.04C56.82 73.36 56.72 73.27 56.93 72.75C56.9397 72.7038 56.9397 72.6562 56.93 72.61C58.149 71.4899 58.9821 70.0127 59.31 68.39C59.315 68.3468 59.315 68.3032 59.31 68.26C63.0967 65.7667 65.4733 61.8367 66.44 56.47C66.7503 54.7168 67.2812 53.0099 68.02 51.39C68.0356 52.1945 67.9483 52.9977 67.76 53.78C67.7558 53.8266 67.7558 53.8734 67.76 53.92V54.06C67.93 59.66 67.6 58.95 67.91 63.73C68.22 68.51 69.54 70.24 69.54 70.26C68.8437 71.7056 68.0063 73.079 67.04 74.36V74.44H67.22C69.0514 74.5522 70.8896 74.4582 72.7 74.16C72.7 74.16 72.78 74.16 72.79 74.16C73.7208 71.9026 74.0649 69.4463 73.79 67.02C75.27 65.46 75.9767 63.1267 75.91 60.02C75.8834 57.2414 75.548 54.4744 74.91 51.77C74.2637 49.0823 73.9051 46.3335 73.84 43.57H73.7C69.4348 44.0894 65.1101 43.8045 60.95 42.73L60.41 45C60.3802 45.4562 60.3802 45.9138 60.41 46.37C60.3942 46.3634 60.3772 46.36 60.36 46.36C60.3428 46.36 60.3258 46.3634 60.31 46.37C59.2933 47.7541 57.9816 48.8949 56.47 49.71M57.74 29.89V31.02C58.56 32.2467 59.3467 33.5133 60.1 34.82C60.1484 34.8678 60.1769 34.9321 60.18 35C60.26 35.19 60.34 35.39 60.41 35.6C61.0593 37.3806 61.2551 39.2948 60.98 41.17L62.09 41.66C63.3189 42.1597 64.6004 42.5186 65.91 42.73C68.592 43.2104 71.338 43.2104 74.02 42.73C73.9009 40.9854 74.0425 39.2328 74.44 37.53C74.5998 36.8789 74.8559 36.2554 75.2 35.68C76.2865 33.6632 76.8017 31.3881 76.69 29.1C74.2077 27.885 71.4454 27.3567 68.69 27.57C67.7085 27.5924 66.7339 27.7403 65.79 28.01C63.6267 28.635 61.3504 28.7648 59.13 28.39C59.0873 28.3798 59.0427 28.3798 59 28.39C58.6963 28.544 58.4271 28.7581 58.2087 29.0194C57.9904 29.2807 57.8275 29.5837 57.73 29.91M73.07 19.4C73.0376 19.4114 73.0023 19.4114 72.97 19.4C72.7278 19.1497 72.4245 18.967 72.09 18.87C71.7065 18.7925 71.3091 18.8201 70.94 18.95C68.8691 19.8872 66.5177 19.9946 64.37 19.25C63.4696 18.9745 62.5161 18.9196 61.59 19.09C58.7371 19.6084 55.7951 19.2889 53.12 18.17H52.98C48.3133 17.8833 45.5967 19.5733 44.83 23.24C44.8232 23.2696 44.8232 23.3004 44.83 23.33C45.8106 23.9124 46.5489 24.8282 46.91 25.91C46.8958 25.9163 46.8805 25.9196 46.865 25.9196C46.8495 25.9196 46.8341 25.9163 46.82 25.91C46.3023 25.2349 45.611 24.713 44.82 24.4H43.56V24.48C43.299 24.6137 43.0282 24.7274 42.75 24.82C42.67 25.02 42.61 25.19 42.57 25.32C41.7097 27.8884 40.491 30.3224 38.95 32.55V32.83C39.43 36.4767 41.1133 38.9233 44 40.17C46.7986 41.366 49.4064 42.9664 51.74 44.92C51.6853 45.6866 51.8607 46.4521 52.2438 47.1184C52.6268 47.7847 53.2 48.3215 53.89 48.66L54.13 48.82C54.4059 49.0844 54.7574 49.2563 55.1355 49.3119C55.5136 49.3674 55.8997 49.3039 56.24 49.13C56.2791 49.1417 56.3208 49.1417 56.36 49.13C57.6054 48.3284 58.5865 47.177 59.18 45.82C59.1902 45.7773 59.1902 45.7327 59.18 45.69C58.2733 43.85 56.5033 42.85 53.87 42.69C52.6452 41.4228 51.6804 39.928 51.03 38.29C49.9727 35.5703 48.2988 33.1331 46.14 31.17C46.9162 31.4079 47.6589 31.744 48.35 32.17C48.35 32.17 48.35 32.17 48.35 32.26H49.9C52.22 31.12 53.53 28.96 53.82 25.8C53.8249 25.7501 53.8249 25.6999 53.82 25.65C54.1699 25.3024 54.4336 24.8778 54.59 24.41C54.59 24.41 54.59 24.41 54.66 24.41C56.1642 25.6019 57.8059 26.6091 59.55 27.41C59.55 27.41 59.55 27.41 59.55 27.49C61.1694 27.4729 62.781 27.2614 64.35 26.86C67.3613 26.0773 70.512 25.9952 73.56 26.62C74.3706 26.7819 75.1571 27.0474 75.9 27.41C76.4215 27.6502 76.9732 27.8184 77.54 27.91C77.89 27.98 78.12 27.91 78.24 27.77C78.5264 27.3306 78.7039 26.8292 78.7578 26.3075C78.8117 25.7858 78.7405 25.2587 78.55 24.77C78.1786 23.4662 77.4759 22.2807 76.5103 21.3291C75.5447 20.3776 74.3491 19.6923 73.04 19.34M69.28 3.1C69.2645 3.1079 69.2474 3.11202 69.23 3.11202C69.2126 3.11202 69.1955 3.1079 69.18 3.1C68.7018 2.50326 68.0473 2.07279 67.31 1.87H67.18C64.4267 1.41667 62.27 1.79333 60.71 3V3.1C60.7873 3.7132 60.7397 4.33569 60.57 4.93C60.57 4.93 60.57 5.02 60.57 5.07C60.31 8.94333 60.87 11.9867 62.25 14.2H62.39C63.9589 14.5603 65.5838 14.6045 67.17 14.33C67.4807 14.0713 67.73 13.7468 67.9 13.38C69.2514 10.1331 69.7273 6.58839 69.28 3.1Z" fill="#EDEDED"/>
<path d="M75.18 19.47V19.4C75.596 19.3676 76.014 19.427 76.4045 19.5738C76.795 19.7207 77.1485 19.9515 77.44 20.25L77.59 20.11C77.66 20.05 77.8 20.05 77.99 20.11C78.2152 20.0824 78.4426 20.1399 78.6276 20.2712C78.8126 20.4026 78.9418 20.5983 78.99 20.82C78.9948 20.8666 78.9948 20.9135 78.99 20.96C78.2849 20.9663 77.5806 21.0097 76.88 21.09H76.74C75.7824 20.2898 74.6835 19.6759 73.5 19.28H73.08V19.42C74.3891 19.7723 75.5847 20.4576 76.5503 21.4091C77.5159 22.3607 78.2186 23.5462 78.59 24.85C78.7805 25.3387 78.8517 25.8658 78.7978 26.3875C78.7439 26.9092 78.5664 27.4106 78.28 27.85C78.16 28.01 77.93 28.06 77.58 27.99C77.0132 27.8984 76.4615 27.7302 75.94 27.49C75.1971 27.1274 74.4106 26.8619 73.6 26.7C70.552 26.0752 67.4013 26.1573 64.39 26.94C62.821 27.3414 61.2094 27.5529 59.59 27.57V27.49C57.8459 26.6891 56.2042 25.6819 54.7 24.49H54.63C54.4736 24.9578 54.2099 25.3824 53.86 25.73C53.8649 25.7799 53.8649 25.8301 53.86 25.88C53.57 29.04 52.26 31.2 49.94 32.34H48.34V32.25C47.6489 31.824 46.9062 31.4879 46.13 31.25C48.2888 33.2131 49.9627 35.6504 51.02 38.37C51.6704 40.008 52.6352 41.5028 53.86 42.77C56.4867 42.9033 58.2567 43.9033 59.17 45.77C59.1802 45.8127 59.1802 45.8573 59.17 45.9C58.5373 47.1823 57.5521 48.2577 56.33 49C56.2908 49.0117 56.2491 49.0117 56.21 49C56.2039 49.1139 56.2232 49.2276 56.2664 49.3331C56.3096 49.4386 56.3758 49.5332 56.46 49.61C56.4666 49.6259 56.47 49.6428 56.47 49.66C56.47 49.6772 56.4666 49.6942 56.46 49.71C57.9716 48.8949 59.2833 47.7541 60.3 46.37C60.3158 46.3634 60.3328 46.36 60.35 46.36C60.3672 46.36 60.3842 46.3634 60.4 46.37C60.3702 45.9138 60.3702 45.4562 60.4 45L60.31 45.46L58.67 44L58.88 41.82L60.88 42.66V42.78C65.0401 43.8545 69.3648 44.1394 73.63 43.62H73.77C73.835 46.3835 74.1937 49.1323 74.84 51.82C75.478 54.5245 75.8134 57.2914 75.84 60.07C75.9133 63.19 75.2067 65.5233 73.72 67.07C73.9949 69.4963 73.6508 71.9526 72.72 74.21C72.72 74.21 72.72 74.21 72.63 74.21C70.8196 74.5082 68.9814 74.6022 67.15 74.49H66.87C65.9257 74.574 64.9816 74.3265 64.2 73.79C64.4549 73.0431 64.9215 72.3865 65.5429 71.9C66.1643 71.4135 66.9138 71.1182 67.7 71.05C67.7 71.05 67.7 71.05 67.7 70.98C67.5843 68.3456 66.9021 65.767 65.7 63.42C65.7 63.42 65.7 63.42 65.62 63.42C66.6882 60.3823 67.3604 57.2196 67.62 54.01H67.69C67.6858 53.9634 67.6858 53.9166 67.69 53.87C67.8783 53.0877 67.9656 52.2845 67.95 51.48C67.2112 53.0999 66.6803 54.8068 66.37 56.56C65.41 61.9333 63.0333 65.8633 59.24 68.35C59.245 68.3932 59.245 68.4368 59.24 68.48C58.9121 70.1027 58.079 71.5799 56.86 72.7C56.8697 72.7462 56.8697 72.7938 56.86 72.84C56.65 73.36 56.75 73.45 57.16 73.13C57.2061 73.0369 57.2631 72.9496 57.33 72.87C57.41 72.7567 57.45 72.7067 57.45 72.72C57.6699 75.4318 57.137 78.1517 55.91 80.58C54.5266 83.2708 53.839 86.2652 53.91 89.29C53.417 89.4661 52.8911 89.531 52.37 89.48H50.96C49.73 89.48 49.17 88.84 49.27 87.65C49.396 83.7892 49.8003 79.9426 50.48 76.14C50.9538 72.9362 52.4518 69.9719 54.75 67.69C53.7541 64.0725 53.6069 60.2738 54.32 56.59C54.3254 56.5435 54.3254 56.4965 54.32 56.45C54.3317 56.4109 54.3317 56.3692 54.32 56.33C53.99 55.81 53.53 55.85 52.95 56.45H52.88C52.057 60.095 52.0332 63.8749 52.81 67.53C52.7942 67.5234 52.7772 67.52 52.76 67.52C52.7428 67.52 52.7258 67.5234 52.71 67.53C52.01 68.42 51.29 69.3 50.56 70.16C50.3743 70.069 50.197 69.9619 50.03 69.84C49.0355 69.1107 48.1353 68.2609 47.35 67.31C44.6833 64.13 40.2267 62.74 33.98 63.14C35.0348 63.5433 36.1372 63.8088 37.26 63.93L40.09 64.4C41.785 65.1156 43.3949 66.0178 44.89 67.09C46.4034 68.0534 47.7537 69.2518 48.89 70.64C49.1427 70.9829 49.4347 71.295 49.76 71.57C48.2175 76.1391 47.6021 80.9701 47.95 85.78C48.1071 88.0135 47.705 90.251 46.78 92.29C46.2478 93.3787 45.7966 94.505 45.43 95.66C45.1799 96.4644 45.1799 97.3257 45.43 98.13C46.0386 98.7867 46.7723 99.3153 47.588 99.6845C48.4037 100.054 49.2849 100.256 50.18 100.28C50.1849 100.303 50.1849 100.327 50.18 100.35H52V100.21C53.145 100.292 54.2865 100.008 55.26 99.4C55.2991 99.3883 55.3408 99.3883 55.38 99.4C55.594 97.3163 55.4895 95.2122 55.07 93.16C55.07 93.16 55.07 92.95 55 92.64C54.9517 92.1154 54.8409 91.5984 54.67 91.1C54.95 88.94 55.3033 86.8 55.73 84.68C55.883 83.9098 56.1457 83.1656 56.51 82.47C57.4807 80.6179 58.2292 78.6577 58.74 76.63C59.1185 75.1615 59.2169 73.6349 59.03 72.13C59.7125 71.4463 60.1517 70.5575 60.28 69.6C60.2848 69.5535 60.2848 69.5066 60.28 69.46C62.1333 68.3088 63.6671 66.7097 64.74 64.81C64.7502 64.7673 64.7502 64.7227 64.74 64.68C65.5498 66.2442 66.0394 67.9543 66.18 69.71C66.1846 69.7566 66.1846 69.8035 66.18 69.85C64.7716 70.8267 63.5828 72.087 62.69 73.55L62.24 73.65C61.8523 74.1994 61.5973 74.8311 61.4949 75.4957C61.3926 76.1602 61.4457 76.8394 61.65 77.48C62.2705 80.39 63.0483 83.2642 63.98 86.09C64.2508 86.9184 64.3194 87.7997 64.18 88.66C63.8933 90.6 63.53 92.49 63.09 94.33C63.0101 94.6912 62.9698 95.0601 62.97 95.43C63.91 97.11 65.7833 97.91 68.59 97.83C73.1367 97.7033 77.68 97.7033 82.22 97.83C82.8151 97.9246 83.4244 97.8046 83.9392 97.4913C84.4539 97.1781 84.8406 96.692 85.03 96.12C84.0519 94.6998 82.5667 93.7085 80.88 93.35C80.0967 93.1549 79.3408 92.8626 78.63 92.48C76.9027 91.5808 75.2796 90.4942 73.79 89.24C73.2933 85.345 73.5444 81.3909 74.53 77.59C74.9407 76.4011 74.9407 75.1089 74.53 73.92C73.73 74 73.53 73.61 74 72.74C74.8836 70.9751 75.2312 68.9902 75 67.03C77 63.7567 77.5933 59.63 76.78 54.65C76.53 53.11 76.27 51.65 75.98 50.17C77.1318 50.8297 78.4574 51.1227 79.78 51.01H79.92C81.5782 49.6221 82.8983 47.8745 83.78 45.9C84.0649 45.2704 84.4277 44.6791 84.86 44.14C86.23 42.4 86.56 40.14 85.86 37.44C85.5976 36.493 85.0619 35.6443 84.32 35C84.6882 33.2249 84.3663 31.3763 83.42 29.83C83.42 29.83 83.42 29.83 83.33 29.83C84.13 26.71 83.62 24.26 81.8 22.51C81.1962 21.9394 80.4716 21.5121 79.68 21.26C79.4063 20.6417 78.9579 20.1169 78.39 19.75C78.3515 19.7344 78.3085 19.7344 78.27 19.75C77.4519 19.6915 76.6598 19.4378 75.96 19.01C75.75 18.88 75.63 18.89 75.6 19.01C75.1673 18.8647 74.8084 18.5561 74.6 18.15C74.591 18.1105 74.591 18.0695 74.6 18.03C74.15 17.86 73.72 17.68 73.32 17.49C73.2773 17.4798 73.2327 17.4798 73.19 17.49V17.63C73.9693 18.1331 74.6476 18.7775 75.19 19.53M50.05 33.73C50.0397 33.6839 50.0397 33.6361 50.05 33.59C50.79 33.09 51.36 33.03 51.75 33.43C53.1259 34.8101 54.6716 36.0097 56.35 37C56.8273 38.7852 57.0164 40.6352 56.91 42.48V42.62C56.1009 42.3208 55.2423 42.1783 54.38 42.2H54.24C52.2888 39.6978 50.8636 36.827 50.05 33.76M73.5 74.96H73.64C73.736 75.5856 73.6456 76.2256 73.38 76.8C73.3694 76.8427 73.3694 76.8873 73.38 76.93C73.3848 76.9766 73.3848 77.0235 73.38 77.07C72.6107 81.4285 72.3323 85.8595 72.55 90.28C74.27 91.28 76 92.36 77.74 93.39C78.334 93.7298 78.9692 93.9919 79.63 94.17C81.2353 94.5617 82.717 95.349 83.94 96.46C83.7474 96.6909 83.5097 96.88 83.2415 97.0159C82.9732 97.1517 82.6801 97.2314 82.38 97.25C80.1755 97.5334 77.9395 97.4557 75.76 97.02C73.9704 96.6606 72.1389 96.5562 70.32 96.71C67.56 96.91 65.53 96.45 64.26 95.34C64.0236 94.5642 64.0915 93.7275 64.45 93C64.7798 92.3682 65.0253 91.6958 65.18 91C65.5225 89.312 65.478 87.5684 65.05 85.9C64.31 83 63.53 80.07 62.72 77.13H62.65C62.65 76.39 62.58 75.64 62.58 74.89C66.2047 75.6745 69.9553 75.6745 73.58 74.89M53.1 90.16V90.23C53.3766 90.5528 53.5673 90.94 53.6547 91.356C53.7421 91.772 53.7233 92.2032 53.6 92.61H53.52C53.08 92.33 53.02 92.61 53.34 93.56C53.8827 95.0644 54.2191 96.6353 54.34 98.23C52.9872 99.0262 51.3839 99.2833 49.85 98.95C49.1676 98.9048 48.5021 98.7178 47.8961 98.401C47.29 98.0842 46.7566 97.6445 46.33 97.11V95.57C47.2079 94.3861 48.214 93.3028 49.33 92.34H49.18C48.5133 92.6533 48.2733 92.4633 48.46 91.77C48.4648 91.7268 48.4648 91.6832 48.46 91.64C48.7867 91.0484 49.1829 90.4978 49.64 90C49.6755 89.987 49.7145 89.987 49.75 90C50.871 89.9434 51.9948 90.0139 53.1 90.21M54.87 25.92H54.95C56.2441 26.9064 57.6673 27.7105 59.18 28.31C59.18 28.31 59.18 28.31 59.18 28.39C61.3946 28.7586 63.6637 28.6253 65.82 28C66.7639 27.7303 67.7385 27.5824 68.72 27.56C71.4754 27.3467 74.2377 27.875 76.72 29.09C76.8317 31.3781 76.3165 33.6532 75.23 35.67C74.8859 36.2454 74.6298 36.8689 74.47 37.52C74.0725 39.2229 73.9309 40.9754 74.05 42.72C71.368 43.2004 68.622 43.2004 65.94 42.72C64.6524 42.5171 63.3913 42.1717 62.18 41.69L61.07 41.2L59.07 40.04C58.5957 38.9167 58.4001 37.6953 58.5 36.48L60.3 35.19L60.46 35.61C60.39 35.4 60.31 35.2 60.23 35.01H60.02C59.3295 35.1754 58.6155 35.2194 57.91 35.14C57.91 35.14 57.91 35.07 57.91 35.06C56.0141 34.2648 54.4401 32.8563 53.44 31.06C54.5123 29.5468 55.0313 27.7107 54.91 25.86M77.51 21.74C77.5021 21.7245 77.498 21.7074 77.498 21.69C77.498 21.6726 77.5021 21.6555 77.51 21.64C81.51 21.88 83.1133 24.2133 82.32 28.64C82.26 28.96 82.2 29.35 82.15 29.81C82.7415 30.4961 83.1644 31.3109 83.3849 32.1895C83.6054 33.068 83.6174 33.986 83.42 34.87C83.42 34.87 83.42 34.96 83.42 35.01C82.63 35.62 81.85 36.25 81.07 36.88C81.0634 36.8959 81.06 36.9128 81.06 36.93C81.06 36.9472 81.0634 36.9642 81.07 36.98C82.0368 36.5291 83.1169 36.3793 84.17 36.55H84.18C85.34 37.67 85.5767 39.2467 84.89 41.28C84.4303 42.7436 83.6042 44.0655 82.49 45.12C82.3607 46.0892 82.035 47.0219 81.533 47.861C81.0309 48.7 80.363 49.4279 79.57 50C79.57 50 79.57 50 79.57 50.09C78.854 50.1861 78.1256 50.126 77.4351 49.9136C76.7446 49.7013 76.1083 49.3418 75.57 48.86C75.553 48.8512 75.5341 48.8467 75.515 48.8467C75.4959 48.8467 75.477 48.8512 75.46 48.86C75.1756 47.7594 75.0344 46.6267 75.04 45.49V45.35C75.508 44.8122 76.0706 44.3648 76.7 44.03C76.7 44.03 76.7 44.03 76.7 43.94C77.7072 44.061 78.7286 43.9725 79.7 43.68H79.83C79.6446 42.5141 79.1193 41.4288 78.32 40.56C78.3085 40.5242 78.3085 40.4858 78.32 40.45C78.07 39.03 78.32 38.1 79.05 37.67C79.0891 37.6583 79.1308 37.6583 79.17 37.67C79.2277 37.6447 79.2786 37.6062 79.3185 37.5575C79.3585 37.5089 79.3864 37.4515 79.4 37.39C78.3838 37.3537 77.4146 36.9526 76.67 36.26L77.68 34C77.7255 34.2265 77.803 34.4453 77.91 34.65C77.8257 34.4051 77.7588 34.1544 77.71 33.9C77.8964 33.4928 78.06 33.0755 78.2 32.65C78.2 32.65 78.2 32.65 78.27 32.65V30.08C78.8676 29.7609 79.4249 29.3714 79.93 28.92C79.9414 28.8877 79.9414 28.8524 79.93 28.82C80.18 25.61 79.38 23.26 77.47 21.75L77.51 21.74Z" fill="#050503" fill-opacity="0.94"/>
<path d="M77.43 21.65C77.4221 21.6655 77.418 21.6826 77.418 21.7C77.418 21.7174 77.4221 21.7345 77.43 21.75C79.34 23.26 80.17 25.61 79.92 28.82C79.9314 28.8523 79.9314 28.8876 79.92 28.92C79.4149 29.3714 78.8576 29.7609 78.26 30.08V32.61H78.19C78.05 33.0354 77.8864 33.4528 77.7 33.86C77.7488 34.1144 77.8157 34.3651 77.9 34.61C78.1058 35.0391 78.3467 35.4505 78.62 35.84C78.86 36.19 79.04 36.48 79.16 36.7C79.2472 36.8193 79.3085 36.9556 79.34 37.1C79.3492 37.1428 79.3492 37.1872 79.34 37.23C79.3264 37.2915 79.2985 37.3489 79.2585 37.3975C79.2186 37.4462 79.1677 37.4847 79.11 37.51C79.0709 37.4983 79.0291 37.4983 78.99 37.51C78.25 37.94 77.99 38.87 78.26 40.29C78.2485 40.3258 78.2485 40.3642 78.26 40.4C79.0593 41.2688 79.5846 42.3541 79.77 43.52H79.64C78.6686 43.8125 77.6472 43.901 76.64 43.78C76.64 43.78 76.64 43.86 76.64 43.87C76.0106 44.2048 75.448 44.6522 74.98 45.19V45.33C74.9744 46.4667 75.1156 47.5994 75.4 48.7C75.417 48.6912 75.4359 48.6867 75.455 48.6867C75.4741 48.6867 75.493 48.6912 75.51 48.7C76.0483 49.1818 76.6846 49.5413 77.3751 49.7536C78.0657 49.9659 78.794 50.0261 79.51 49.93C79.51 49.93 79.51 49.85 79.51 49.84C80.2973 49.2735 80.9619 48.5536 81.4637 47.7235C81.9656 46.8934 82.2942 45.9704 82.43 45.01C83.5442 43.9555 84.3704 42.6336 84.83 41.17C85.4967 39.17 85.26 37.5933 84.12 36.44H83.98C82.9269 36.2693 81.8468 36.4191 80.88 36.87C80.8734 36.8542 80.87 36.8372 80.87 36.82C80.87 36.8028 80.8734 36.7858 80.88 36.77C81.66 36.14 82.44 35.51 83.23 34.9V34.76C83.4274 33.876 83.4154 32.958 83.1949 32.0794C82.9744 31.2009 82.5515 30.386 81.96 29.7C81.96 29.24 82.07 28.85 82.13 28.53C82.9433 24.1167 81.34 21.7833 77.32 21.53M53.12 90.23V90.16C52.0064 89.9791 50.8758 89.9254 49.75 90C49.7145 89.987 49.6755 89.987 49.64 90C49.1886 90.5051 48.7991 91.0624 48.48 91.66C48.4848 91.7032 48.4848 91.7468 48.48 91.79C48.2667 92.4567 48.5067 92.6467 49.2 92.36H49.41C48.294 93.3228 47.2879 94.4061 46.41 95.59V97.14C46.8303 97.6734 47.3565 98.114 47.9554 98.4342C48.5543 98.7543 49.213 98.9469 49.89 99C51.424 99.3333 53.0272 99.0762 54.38 98.28C54.259 96.6853 53.9227 95.1144 53.38 93.61C53.06 92.69 53.12 92.38 53.56 92.66H53.64C53.7697 92.2444 53.79 91.8024 53.6989 91.3768C53.6078 90.9511 53.4084 90.5561 53.12 90.23Z" fill="#ECECEC"/>
<path d="M40.12 64.37L37.29 63.9C36.1672 63.7788 35.0648 63.5133 34.01 63.11C32.5742 62.7818 31.1585 62.3711 29.77 61.88C26.77 60.88 24.88 59.74 24.03 58.61V58.68C23.4921 58.4392 22.9233 58.2742 22.34 58.19C24.52 62.05 28.52 64.11 34.34 64.37H40.12Z" fill="#4A0501"/>
<path d="M52.53 48.55V48.63C52.53 49.63 53.27 50.21 54.77 50.25V50.32C53.996 52.2302 53.3903 54.2044 52.96 56.22C52.955 56.2665 52.955 56.3135 52.96 56.36C53.54 55.76 53.96 55.72 54.33 56.24C54.3417 56.2791 54.3417 56.3209 54.33 56.36C54.7056 54.1977 55.3787 52.0978 56.33 50.12C56.3785 50.0047 56.4121 49.8838 56.43 49.76C56.4366 49.7442 56.44 49.7272 56.44 49.71C56.44 49.6928 56.4366 49.6758 56.43 49.66C56.3458 49.5832 56.2796 49.4886 56.2364 49.3831C56.1932 49.2776 56.1739 49.1638 56.18 49.05C55.8397 49.2239 55.4536 49.2874 55.0755 49.2319C54.6974 49.1763 54.346 49.0044 54.07 48.74L53.83 48.58C53.14 48.2415 52.5668 47.7047 52.1838 47.0384C51.8007 46.3721 51.6253 45.6066 51.68 44.84C49.3464 42.8864 46.7386 41.286 43.94 40.09C41.0467 38.8433 39.3633 36.3967 38.89 32.75C38.8506 32.7974 38.8201 32.8517 38.8 32.91V33.1C38.2604 33.0074 37.7539 32.7765 37.33 32.43C36.6965 31.9714 36.0277 31.5634 35.33 31.21C35.2873 31.1994 35.2427 31.1994 35.2 31.21C33.5733 32.0167 31.9 32.7633 30.18 33.45V33.59H30.25C30.1804 34.251 29.8535 34.8581 29.34 35.28V35.42C31.64 34.35 33.99 33.33 36.34 32.36C36.3828 32.3508 36.4272 32.3508 36.47 32.36C37.49 37.34 40.28 40.59 44.84 42.11C45.879 42.4555 46.8833 42.8974 47.84 43.43C48.84 43.97 49.73 44.54 50.63 45.15C50.6072 45.836 50.7721 46.5152 51.1069 47.1144C51.4417 47.7135 51.9338 48.2099 52.53 48.55Z" fill="#131C02"/>
<path d="M70.66 9.16C71.1044 6.71918 70.9673 4.20798 70.26 1.83C69.5949 1.28871 68.8095 0.914914 67.97 0.740005C64.6367 -0.00666195 61.8867 0.326671 59.72 1.74C59.3418 2.77211 59.1984 3.87551 59.3 4.97001C59.5668 8.3137 59.4729 11.6764 59.02 15C58.9773 14.9898 58.9327 14.9898 58.89 15C58.39 15.14 57.89 15.28 57.33 15.4C57.2905 15.409 57.2495 15.409 57.21 15.4C56.8555 15.2255 56.4651 15.1365 56.07 15.14V15.22C55.4317 15.3927 54.8536 15.7388 54.4 16.22H54.27C53.6322 15.9696 52.9551 15.8342 52.27 15.82C52.2341 15.8097 52.1959 15.8097 52.16 15.82C51.51 16.25 50.85 16.66 50.16 17.05H50.02C49.3087 16.9304 48.5791 16.9844 47.8932 17.2072C47.2072 17.4301 46.5852 17.8153 46.08 18.33C44.83 18.57 43.64 18.86 42.53 19.18C36.2522 21.0627 30.1194 23.3988 24.18 26.17C18.6385 28.7305 13.4739 32.0379 8.83 36C4.30333 39.86 1.36 45.3033 0 52.33C0.0431484 52.9062 0.203059 53.4676 0.470001 53.98C0.470001 53.98 0.469999 53.98 0.559999 53.98C4.91226 49.8173 9.7505 46.1945 14.97 43.19C15.52 42.87 16.05 42.53 16.58 42.19C18.3536 43.9349 19.5297 46.1961 19.94 48.65C19.9446 48.6966 19.9446 48.7435 19.94 48.79C19.7667 49.3967 20.1 51.1467 20.94 54.04C21.22 55.04 21.52 55.97 21.85 56.94C21.9757 57.3716 22.1259 57.7956 22.3 58.21C22.8833 58.2942 23.4521 58.4592 23.99 58.7V58.63C23.5532 58.0345 23.1937 57.386 22.92 56.7C22.6352 56.0086 22.463 55.2759 22.41 54.53C22.01 49.0233 20.5667 44.6267 18.08 41.34C21.7533 39.34 25.4933 37.4033 29.3 35.53C29.3 35.53 29.3 35.53 29.3 35.44V35.3C29.8135 34.8781 30.1404 34.271 30.21 33.61H30.18C25.8267 35.65 21.5467 37.78 17.34 40C12.0136 42.82 7.10079 46.3599 2.74 50.52C2.2 51.04 1.8 51.25 1.54 51.14C3.18 44.38 6.39333 39.21 11.18 35.63C16.1068 31.9348 21.4418 28.8177 27.08 26.34C32.6407 23.8932 38.3851 21.887 44.26 20.34C43.7317 21.2425 43.3916 22.2426 43.26 23.28C43.26 23.28 43.26 23.28 43.19 23.28C40.8 23.93 39.39 25.65 38.98 28.43L38.83 29.6C37.66 30.06 36.53 30.6 35.45 31.12C35.4073 31.1302 35.3627 31.1302 35.32 31.12C36.0177 31.4734 36.6865 31.8814 37.32 32.34C37.7439 32.6865 38.2504 32.9174 38.79 33.01V32.82C38.8101 32.7617 38.8406 32.7075 38.88 32.66V32.38C40.421 30.1524 41.6397 27.7184 42.5 25.15C42.5 25.02 42.6 24.85 42.68 24.65C42.9582 24.5574 43.229 24.4438 43.49 24.31C43.49 24.31 43.49 24.31 43.49 24.23H44.76C45.551 24.5431 46.2423 25.0649 46.76 25.74C46.7742 25.7464 46.7895 25.7496 46.805 25.7496C46.8205 25.7496 46.8358 25.7464 46.85 25.74C46.4889 24.6582 45.7506 23.7424 44.77 23.16C44.7632 23.1304 44.7632 23.0996 44.77 23.07C45.51 19.4033 48.2267 17.7133 52.92 18H53.06C55.7351 19.1189 58.6771 19.4384 61.53 18.92C62.4561 18.7496 63.4096 18.8045 64.31 19.08C66.4577 19.8246 68.8091 19.7172 70.88 18.78C71.2491 18.6501 71.6465 18.6225 72.03 18.7C72.3645 18.797 72.6678 18.9797 72.91 19.23C72.9424 19.2414 72.9777 19.2414 73.01 19.23V19.09H73.3V19.01C72.874 18.8296 72.4599 18.6225 72.06 18.39C71.6779 18.3063 71.2821 18.3063 70.9 18.39C69.8564 18.7353 68.7811 18.9765 67.69 19.11C66.252 19.3067 64.7877 19.1558 63.42 18.67C62.411 18.3376 61.3344 18.2654 60.29 18.46C58.8345 18.6676 57.3522 18.5826 55.93 18.21C54.34 17.82 52.69 17.44 50.93 17.09L52.31 16.47V16.39H53.68C54.44 16.84 55.03 17.17 55.44 17.39L55.37 17.25C54.85 16.71 54.98 16.27 55.76 15.93C55.76 15.93 55.76 15.93 55.76 15.85C57.5313 15.6685 59.3166 16.0166 60.89 16.85C62.997 17.9554 65.3227 18.5804 67.7 18.68C68.7382 18.0852 69.81 17.5509 70.91 17.08C70.91 17.08 70.91 17.08 70.91 16.99H72.31C72.5606 17.1059 72.8044 17.2361 73.04 17.38C73.0759 17.3903 73.1141 17.3903 73.15 17.38V17.17C72.3046 16.8441 71.406 16.6779 70.5 16.68C70.1598 14.1181 70.2003 11.52 70.62 8.97001M69.18 3.06C69.1955 3.06791 69.2126 3.07203 69.23 3.07203C69.2474 3.07203 69.2645 3.06791 69.28 3.06C69.7291 6.55167 69.2532 10.1 67.9 13.35C67.73 13.7168 67.4807 14.0413 67.17 14.3C65.5838 14.5745 63.9589 14.5303 62.39 14.17H62.25C60.87 11.97 60.3067 8.93667 60.56 5.07V4.93001C60.7297 4.3357 60.7773 3.7132 60.7 3.1V3.00001C62.2667 1.79334 64.4267 1.40001 67.18 1.82001H67.32C68.055 2.02739 68.7059 2.4613 69.18 3.06ZM69.18 13.53C69.2158 13.5185 69.2542 13.5185 69.29 13.53C69.5329 14.7778 69.6269 16.05 69.57 17.32V17.46C68.999 18.0452 68.2747 18.4576 67.48 18.65C67.48 18.65 67.48 18.65 67.48 18.73C65.4154 18.4444 63.3978 17.8862 61.48 17.07C61.4373 17.0598 61.3927 17.0598 61.35 17.07C60.6567 16.3941 60.2156 15.5013 60.1 14.54C60.0952 14.4935 60.0952 14.4465 60.1 14.4C60.1 13.11 60.46 12.84 61.1 13.61C61.5096 14.1377 61.9909 14.6055 62.53 15H67.18C67.9235 14.6242 68.5994 14.1274 69.18 13.53Z" fill="#0C0602"/>
<path d="M69.28 13.5C69.2442 13.4885 69.2058 13.4885 69.17 13.5C68.5947 14.1072 67.9221 14.6142 67.18 15H62.53C61.9343 14.5857 61.4049 14.0833 60.96 13.51C60.36 12.74 60.04 13.01 59.96 14.3C59.9552 14.3466 59.9552 14.3935 59.96 14.44C60.0851 15.4199 60.5485 16.3253 61.27 17C61.3127 16.9898 61.3573 16.9898 61.4 17C63.3178 17.8162 65.3354 18.3744 67.4 18.66V18.58C68.1947 18.3876 68.919 17.9752 69.49 17.39V17.25C69.5668 15.9961 69.4963 14.7375 69.28 13.5Z" fill="#CCCCCC"/>
<path d="M43.18 23.34H43.25C43.3815 22.3026 43.7217 21.3025 44.25 20.4C38.375 21.947 32.6307 23.9532 27.07 26.4C21.4381 28.8595 16.1066 31.9564 11.18 35.63C6.39331 39.21 3.17998 44.3867 1.53998 51.16C1.79998 51.27 2.19998 51.06 2.73998 50.54C7.0995 46.3728 12.0124 42.8262 17.34 40C21.54 37.76 25.83 35.6167 30.21 33.57V33.43C31.91 32.7633 33.5533 32.0233 35.14 31.21C35.1827 31.1994 35.2273 31.1994 35.27 31.21C35.3127 31.2202 35.3572 31.2202 35.4 31.21C36.48 30.66 37.61 30.15 38.78 29.69L38.93 28.52C39.34 25.71 40.75 24 43.18 23.34Z" fill="#7DBE01"/>
<path d="M52.56 48.63V48.55C51.9777 48.1946 51.5027 47.6879 51.1858 47.0838C50.8688 46.4798 50.7216 45.8011 50.76 45.12C49.86 44.51 48.93 43.94 47.97 43.4C47.0133 42.8674 46.0089 42.4255 44.97 42.08C40.41 40.56 37.62 37.31 36.6 32.33C36.5571 32.3208 36.5128 32.3208 36.47 32.33C34.09 33.33 31.74 34.33 29.47 35.39V35.48C25.6633 37.36 21.9233 39.2966 18.25 41.29C20.7366 44.57 22.18 48.9666 22.58 54.48C22.633 55.2259 22.8052 55.9585 23.09 56.65C23.3637 57.3359 23.7232 57.9844 24.16 58.58C25.01 59.71 26.93 60.8 29.9 61.85C31.2885 62.3411 32.7042 62.7518 34.14 63.08C40.3933 62.6733 44.85 64.0633 47.51 67.25C48.2953 68.2008 49.1955 69.0506 50.19 69.78C50.357 69.9019 50.5343 70.0089 50.72 70.1C51.45 69.24 52.17 68.36 52.87 67.47C52.8858 67.4634 52.9028 67.46 52.92 67.46C52.9371 67.46 52.9541 67.4634 52.97 67.47C52.1931 63.8149 52.217 60.0349 53.04 56.39C53.04 56.39 53.04 56.39 53.11 56.39C53.105 56.3434 53.105 56.2965 53.11 56.25C53.5403 54.2343 54.1459 52.2602 54.92 50.35V50.28C53.3 50.21 52.55 49.67 52.56 48.63Z" fill="#7DBE01"/>
<path d="M50.03 33.59C50.0196 33.6361 50.0196 33.6839 50.03 33.73C50.8435 36.797 52.2687 39.6678 54.22 42.17H54.36C55.2223 42.1482 56.0809 42.2908 56.89 42.59V42.45C56.9996 40.6162 56.8174 38.7766 56.35 37C54.6663 36.0204 53.1139 34.8309 51.73 33.46C51.34 33 50.77 33.09 50.03 33.59Z" fill="#7DBE01"/>
<path d="M77.59 20.11L77.44 20.25C77.1485 19.9515 76.795 19.7207 76.4044 19.5738C76.0139 19.427 75.5959 19.3676 75.18 19.4V19.47C74.6376 18.7175 73.9593 18.0731 73.18 17.57C73.144 17.5803 73.1059 17.5803 73.07 17.57C72.8343 17.4261 72.5906 17.2959 72.34 17.18H70.94V17.27C69.84 17.7409 68.7682 18.2752 67.73 18.87C65.3496 18.758 63.0237 18.1193 60.92 17C59.3465 16.1665 57.5612 15.8185 55.79 16C55.79 16 55.79 16.07 55.79 16.08C55.01 16.42 54.88 16.86 55.4 17.4L55.47 17.54C55.06 17.34 54.47 17.01 53.71 16.54H52.42V16.62L51.04 17.24C52.75 17.59 54.4 17.97 56.04 18.36C57.4622 18.7325 58.9445 18.8175 60.4 18.61C61.4444 18.4154 62.521 18.4876 63.53 18.82C64.8977 19.3058 66.3619 19.4567 67.8 19.26C68.8911 19.1265 69.9664 18.8853 71.01 18.54C71.3921 18.4563 71.7878 18.4563 72.17 18.54C72.5699 18.7725 72.984 18.9796 73.41 19.16C73.41 19.16 73.41 19.16 73.41 19.24H73.54C74.7235 19.6359 75.8224 20.2498 76.78 21.05H76.92C77.6053 20.9981 78.2929 20.9814 78.98 21C78.9848 20.9534 78.9848 20.9065 78.98 20.86C78.9318 20.6383 78.8025 20.4426 78.6175 20.3112C78.4326 20.1799 78.2052 20.1224 77.98 20.15C77.8 20.05 77.66 20.05 77.59 20.11Z" fill="#7DBE01"/>
<path d="M73.34 77C73.3448 76.9534 73.3448 76.9065 73.34 76.86C72.49 77.04 71.6 77.21 70.68 77.36C68.0232 77.7906 65.3091 77.716 62.68 77.14C63.49 80.08 64.27 83.01 65.01 85.91C65.4498 87.5721 65.5079 89.3122 65.18 91C65.0412 91.6934 64.8126 92.3657 64.5 93C64.1107 93.6964 63.9965 94.5135 64.18 95.29C65.45 96.4 67.48 96.86 70.24 96.66C72.0589 96.5062 73.8904 96.6106 75.68 96.97C77.8595 97.4057 80.0955 97.4834 82.3 97.2C82.6001 97.1813 82.8932 97.1017 83.1615 96.9658C83.4297 96.83 83.6674 96.6409 83.86 96.41C82.6369 95.2989 81.1553 94.5117 79.55 94.12C78.8892 93.9419 78.254 93.6797 77.66 93.34C75.92 92.34 74.19 91.28 72.47 90.23C72.264 85.8013 72.5559 81.3635 73.34 77Z" fill="#7DBE01"/>
<path d="M73.64 74.91H73.5C69.8753 75.6945 66.1247 75.6945 62.5 74.91C62.5 75.66 62.5 76.41 62.57 77.15H62.64C65.2691 77.726 67.9832 77.8006 70.64 77.37C71.56 77.22 72.45 77.05 73.3 76.87C73.2894 76.8273 73.2894 76.7827 73.3 76.74C73.591 76.1768 73.7093 75.5402 73.64 74.91Z" fill="#85CA01"/>
<path d="M18.05 41.4C20.3367 44.1733 21.7567 48.32 22.31 53.84C23.2167 51.44 25.58 47.8833 29.4 43.17C31 41.17 32.53 39.45 33.98 37.94C34.989 36.8185 36.1192 35.8124 37.35 34.94C37.1468 34.5927 36.9921 34.2192 36.89 33.83C36.89 33.83 36.79 33.34 36.58 32.38H36.26C33.3103 33.3448 30.4469 34.5557 27.7 36C25.3533 37.1733 22.1367 38.9733 18.05 41.4Z" fill="black" fill-opacity="0.5"/>
<path d="M41.66 63.76C42.8498 64.0536 43.9798 64.551 45 65.23C45.9011 65.956 46.7437 66.7518 47.52 67.61C48.4463 68.6026 49.4869 69.4821 50.62 70.23L52.83 67.46C52.3082 65.0469 52.1598 62.5681 52.39 60.11C52.6592 57.4098 53.2604 54.7531 54.18 52.2C51.656 54.7753 48.8824 57.0933 45.9 59.12C43.3809 60.8292 40.634 62.1757 37.74 63.12C39.0616 63.229 40.3724 63.4431 41.66 63.76Z" fill="black" fill-opacity="0.5"/>
<path d="M67.86 73.23C68.4827 72.2908 69.0374 71.3083 69.52 70.29C68.6718 68.6932 68.1548 66.9415 68 65.14C67.53 61.3 67.94 56.98 67.7 53.88C67.3197 55.0565 67.0453 56.2647 66.88 57.49C66.552 59.4611 66.1079 61.4112 65.55 63.33C66.7724 65.7191 67.5131 68.3252 67.73 71H67.63C65.69 71.29 62.92 73 64.03 73.84C64.4817 74.1685 65.007 74.3814 65.56 74.46C65.9767 74.5931 66.42 74.6206 66.85 74.54C66.8968 74.535 66.9402 74.5129 66.9716 74.4777C67.003 74.4426 67.0203 74.3971 67.02 74.35M79.37 37.3C79.2331 36.7881 78.9837 36.3132 78.64 35.91C78.2006 35.3458 77.8622 34.7097 77.64 34.03L76.64 36.17C77.3881 36.8632 78.3607 37.2643 79.38 37.3M58.67 44L60.33 45.51L60.92 42.66L58.92 41.82L58.67 44ZM58.49 36.54C58.4009 37.7548 58.596 38.9737 59.06 40.1L61.06 41.26C61.3548 39.2298 61.0992 37.1577 60.32 35.26L58.52 36.55M58.09 29.47C58.3927 29.016 58.8102 28.6503 59.3 28.41L54.95 25.81C54.8426 26.8247 54.6486 27.8284 54.37 28.81C54.1167 29.6282 53.7816 30.4189 53.37 31.17C53.961 32.2441 54.7761 33.1786 55.76 33.91C56.4085 34.5032 57.1658 34.965 57.99 35.27C58.7258 35.4764 59.5127 35.3941 60.19 35.04C60.27 35.04 59.96 34.46 59.25 33.44C58.6741 32.6778 58.175 31.8605 57.76 31C57.6736 30.4705 57.78 29.9276 58.06 29.47H58.09Z" fill="black" fill-opacity="0.3"/>
</svg>
