<svg width="216" height="82" viewBox="0 0 216 82" fill="none" xmlns="http://www.w3.org/2000/svg">
<path d="M157.844 66.632L169.796 14.792H193.484C196.604 14.792 199.34 15.416 201.692 16.664C204.044 17.864 205.892 19.544 207.236 21.704C208.58 23.864 209.252 26.36 209.252 29.192C209.252 31.736 208.724 34.112 207.668 36.32C206.66 38.48 205.22 40.376 203.348 42.008C201.524 43.592 199.364 44.84 196.868 45.752C194.42 46.664 191.756 47.12 188.876 47.12H171.164L173.108 38.624H189.452C190.7 38.624 191.852 38.408 192.908 37.976C193.964 37.496 194.876 36.848 195.644 36.032C196.46 35.216 197.084 34.28 197.516 33.224C197.948 32.12 198.164 30.944 198.164 29.696C198.164 27.728 197.588 26.168 196.436 25.016C195.284 23.864 193.724 23.288 191.756 23.288H178.94L168.932 66.632H157.844Z" fill="#0AE448"/>
<path d="M102.957 66.632L133.341 14.792H143.637L114.765 66.632H102.957ZM141.477 66.632L136.293 14.792H145.725L152.493 66.632H141.477ZM117.357 46.544H146.445L144.429 55.184H115.341L117.357 46.544Z" fill="#0AE448"/>
<path d="M83.6021 67.28C80.3381 67.28 77.3141 66.848 74.5301 65.984C71.7941 65.12 69.4181 63.92 67.4021 62.384C65.4341 60.848 63.8981 59.048 62.7941 56.984C61.6901 54.872 61.1621 52.568 61.2101 50.072H71.8661C71.8661 51.368 72.1541 52.568 72.7301 53.672C73.3061 54.776 74.1461 55.736 75.2501 56.552C76.3541 57.368 77.6741 57.992 79.2101 58.424C80.7461 58.856 82.4261 59.072 84.2501 59.072C87.2261 59.072 89.5061 58.52 91.0901 57.416C92.7221 56.312 93.5381 54.752 93.5381 52.736C93.5381 51.344 93.1061 50.168 92.2421 49.208C91.3781 48.248 90.0101 47.408 88.1381 46.688L79.2101 43.232C75.4181 41.744 72.6341 39.968 70.8581 37.904C69.0821 35.792 68.1941 33.2 68.1941 30.128C68.1941 26.864 69.0341 24.032 70.7141 21.632C72.3941 19.184 74.7461 17.312 77.7701 16.016C80.7941 14.672 84.3221 14 88.3541 14C91.2821 14 93.9461 14.384 96.3461 15.152C98.7461 15.872 100.81 16.928 102.538 18.32C104.266 19.712 105.586 21.368 106.498 23.288C107.458 25.208 107.914 27.32 107.866 29.624H97.2101C97.2581 28.136 96.8741 26.84 96.0581 25.736C95.2421 24.632 94.0901 23.768 92.6021 23.144C91.1141 22.52 89.3621 22.208 87.3461 22.208C85.6181 22.208 84.1061 22.424 82.8101 22.856C81.5621 23.288 80.5781 23.936 79.8581 24.8C79.1861 25.616 78.8501 26.648 78.8501 27.896C78.8501 29.096 79.2581 30.152 80.0741 31.064C80.9381 31.976 82.3061 32.792 84.1781 33.512L92.3861 36.752C96.6581 38.432 99.7061 40.328 101.53 42.44C103.354 44.504 104.266 47.168 104.266 50.432C104.266 53.888 103.402 56.888 101.674 59.432C99.9941 61.928 97.6181 63.872 94.5461 65.264C91.4741 66.608 87.8261 67.28 83.6021 67.28Z" fill="#0AE448"/>
<path d="M32.072 67.352C27.32 67.352 23.216 66.392 19.76 64.472C16.304 62.504 13.64 59.768 11.768 56.264C9.89601 52.712 8.96001 48.608 8.96001 43.952C8.96001 40.64 9.46401 37.496 10.472 34.52C11.48 31.496 12.896 28.76 14.72 26.312C16.544 23.816 18.68 21.656 21.128 19.832C23.624 18.008 26.36 16.592 29.336 15.584C32.36 14.576 35.552 14.072 38.912 14.072C42.08 14.072 44.96 14.528 47.552 15.44C50.144 16.352 52.4 17.624 54.32 19.256C56.24 20.84 57.728 22.712 58.784 24.872C59.888 27.032 60.464 29.384 60.512 31.928H49.424C49.28 30.632 48.92 29.432 48.344 28.328C47.816 27.224 47.072 26.264 46.112 25.448C45.2 24.632 44.048 24.008 42.656 23.576C41.312 23.096 39.752 22.856 37.976 22.856C35.912 22.856 33.992 23.24 32.216 24.008C30.44 24.728 28.808 25.76 27.32 27.104C25.88 28.448 24.632 30.032 23.576 31.856C22.52 33.632 21.704 35.6 21.128 37.76C20.552 39.872 20.264 42.08 20.264 44.384C20.264 48.8 21.368 52.304 23.576 54.896C25.784 57.44 28.808 58.712 32.648 58.712C35.864 58.712 38.504 58.28 40.568 57.416C42.632 56.552 44.336 55.448 45.68 54.104L55.688 57.776C52.664 60.8 49.208 63.152 45.32 64.832C41.432 66.512 37.016 67.352 32.072 67.352ZM44.6 57.776L47.624 44.528L49.424 46.76H35.744L37.688 38.264H60.224L55.688 57.776H44.6Z" fill="#0AE448"/>
</svg>
