<svg width="23" height="42" viewBox="0 0 23 42" fill="none" xmlns="http://www.w3.org/2000/svg">
<g clip-path="url(#clip0_245_529)">
<path d="M21.6626 33.1188H21.5042V33.0303H21.9308V33.1188H21.7733V33.5604H21.6626V33.1188ZM22.5134 33.1418H22.5109L22.3539 33.5605H22.282L22.126 33.1418H22.1241V33.5605H22.0197V33.0304H22.1734L22.318 33.4058L22.4622 33.0304H22.6153V33.5605H22.5133L22.5134 33.1418Z" fill="#E76F00"/>
<path d="M7.47704 22.2786C7.47704 22.2786 6.37453 22.9188 8.26166 23.1354C10.5479 23.3958 11.7163 23.3584 14.2357 22.8823C14.2357 22.8823 14.8981 23.297 15.8231 23.6561C10.1753 26.0728 3.04096 23.5162 7.47704 22.2786ZM6.7869 19.125C6.7869 19.125 5.55034 20.0389 7.43886 20.2339C9.88105 20.4854 11.8097 20.506 15.147 19.8644C15.147 19.8644 15.6087 20.3316 16.3345 20.5871C9.50584 22.5807 1.90004 20.7444 6.7869 19.125Z" fill="#5382A1"/>
<path d="M12.605 13.7758C13.9966 15.3755 12.2395 16.815 12.2395 16.815C12.2395 16.815 15.7729 14.9938 14.1502 12.7132C12.6345 10.5863 11.4722 9.52967 17.7644 5.88623C17.7645 5.88615 7.88768 8.34896 12.605 13.7758Z" fill="#E76F00"/>
<path d="M20.0747 24.6116C20.0747 24.6116 20.8906 25.2829 19.1762 25.8021C15.9162 26.788 5.60769 27.0858 2.74403 25.8414C1.71462 25.3942 3.64506 24.7737 4.2523 24.6436C4.88559 24.5064 5.2475 24.532 5.2475 24.532C4.10269 23.7268 -2.15208 26.1129 2.07038 26.7964C13.5857 28.6608 23.0617 25.9568 20.0747 24.6116ZM8.00726 15.8579C8.00726 15.8579 2.76371 17.1013 6.15039 17.5529C7.58035 17.744 10.4309 17.7008 13.0861 17.4786C15.2561 17.2959 17.4352 16.9074 17.4352 16.9074C17.4352 16.9074 16.67 17.2345 16.1164 17.6119C10.7917 19.0101 0.505273 18.3596 3.4666 16.9294C5.97099 15.7208 8.00726 15.8579 8.00726 15.8579ZM17.4136 21.1072C22.8264 18.299 20.3238 15.6003 18.5769 15.9639C18.1487 16.0529 17.9578 16.13 17.9578 16.13C17.9578 16.13 18.1168 15.8814 18.4203 15.7738C21.8761 14.5608 24.5338 19.3514 17.3047 21.2489C17.3047 21.2489 17.3886 21.1742 17.4136 21.1072Z" fill="#5382A1"/>
<path d="M14.1502 0.00292969C14.1502 0.00292969 17.1479 2.99678 11.307 7.60068C6.62319 11.2937 10.239 13.3993 11.3051 15.8052C8.57112 13.3423 6.56472 11.1744 7.91077 9.15661C9.88639 6.19466 15.3597 4.75861 14.1502 0.00292969Z" fill="#E76F00"/>
<path d="M8.53912 28.7168C13.7348 29.0488 21.7133 28.5326 21.9022 26.0781C21.9022 26.0781 21.539 27.0085 17.6082 27.7476C13.1737 28.5807 7.70419 28.4835 4.46021 27.9495C4.46036 27.9493 5.12437 28.4982 8.53912 28.7168Z" fill="#5382A1"/>
<path d="M7.68769 38.0957C7.19755 38.5201 6.67989 38.7584 6.21534 38.7584C5.55227 38.7584 5.19402 38.3614 5.19402 37.7247C5.19402 37.036 5.57793 36.5324 7.11777 36.5324H7.68761L7.68769 38.0957ZM9.04012 39.6191V34.9033C9.04012 33.6985 8.35193 32.9037 6.69265 32.9037C5.72397 32.9037 4.87543 33.1425 4.18576 33.447L4.38483 34.2818C4.92784 34.0828 5.63073 33.8976 6.32063 33.8976C7.27648 33.8976 7.68769 34.2818 7.68769 35.0762V35.6723H7.21062C4.88826 35.6723 3.84065 36.5723 3.84065 37.9232C3.84065 39.0892 4.53102 39.7519 5.83089 39.7519C6.66644 39.7519 7.29017 39.4074 7.87323 38.9034L7.97906 39.6193L9.04012 39.6191ZM13.5536 39.6191H11.8669L9.83687 33.0231H11.31L12.5696 37.0757L12.8496 38.2945C13.4869 36.5323 13.9376 34.7444 14.1631 33.0231H15.596C15.212 35.195 14.5212 37.5791 13.5536 39.6191ZM20.0245 38.0957C19.5334 38.5201 19.0149 38.7584 18.5503 38.7584C17.8884 38.7584 17.5292 38.3614 17.5292 37.7247C17.5292 37.036 17.9139 36.5324 19.4537 36.5324H20.0245V38.0957ZM21.3768 39.6191V34.9033C21.3768 33.6985 20.687 32.9037 19.0295 32.9037C18.0602 32.9037 17.2113 33.1425 16.522 33.447L16.7208 34.2818C17.264 34.0828 17.9682 33.8976 18.6575 33.8976C19.6127 33.8976 20.0245 34.2818 20.0245 35.0762V35.6723H19.5466C17.2236 35.6723 16.1764 36.5723 16.1764 37.9232C16.1764 39.0892 16.8662 39.7519 18.1659 39.7519C19.0019 39.7519 19.6254 39.4074 20.2094 38.9034L20.3157 39.6193L21.3768 39.6191ZM2.35774 40.7392C1.97219 41.3012 1.34948 41.7458 0.667741 41.9974L0 41.2129C0.518904 40.947 0.963935 40.5177 1.1707 40.1179C1.34956 39.7622 1.42359 39.3038 1.42359 38.2077V30.6772H2.86047V38.1045C2.86039 39.5699 2.74305 40.1619 2.35774 40.7392Z" fill="#E76F00"/>
</g>
<defs>
<clipPath id="clip0_245_529">
<rect width="22.6154" height="42" fill="white"/>
</clipPath>
</defs>
</svg>
