<svg width="41" height="42" viewBox="0 0 41 42" fill="none" xmlns="http://www.w3.org/2000/svg">
<g clip-path="url(#clip0_245_524)">
<path d="M40.5691 9.58236C40.5842 9.63801 40.5919 9.69539 40.592 9.75304V18.7134C40.592 18.8284 40.5616 18.9413 40.5039 19.0409C40.4462 19.1404 40.3632 19.2229 40.2634 19.2801L32.735 23.61V32.1923C32.735 32.4258 32.6108 32.6414 32.408 32.759L16.6933 41.7961C16.6573 41.8165 16.6181 41.8296 16.5788 41.8435C16.5641 41.8484 16.5502 41.8574 16.5347 41.8614C16.4248 41.8903 16.3094 41.8903 16.1995 41.8614C16.1815 41.8565 16.1652 41.8467 16.148 41.8402C16.112 41.8271 16.0744 41.8157 16.0401 41.7961L0.328634 32.759C0.228823 32.7017 0.145891 32.6192 0.0881953 32.5197C0.0304995 32.4202 7.90842e-05 32.3072 0 32.1923L0 5.31126C0 5.25246 0.00817497 5.19529 0.0228899 5.13976C0.0277949 5.12098 0.0392399 5.10383 0.0457798 5.08504C0.0580423 5.05074 0.0694872 5.01563 0.0874722 4.98378C0.0997346 4.96254 0.11772 4.94539 0.132435 4.9258C0.151237 4.89966 0.168404 4.87271 0.190477 4.84985C0.209279 4.83106 0.233804 4.81718 0.255059 4.80085C0.278766 4.78125 0.300021 4.76001 0.326999 4.7445L8.18396 0.225949C8.28344 0.168767 8.39619 0.138672 8.51096 0.138672C8.62573 0.138672 8.73849 0.168767 8.83796 0.225949L16.6941 4.7445H16.6957C16.7219 4.76083 16.744 4.78125 16.7677 4.80003C16.7889 4.81636 16.8126 4.83106 16.8314 4.84903C16.8543 4.87271 16.8707 4.89966 16.8903 4.9258C16.9042 4.94539 16.923 4.96254 16.9345 4.98378C16.9533 5.01644 16.9639 5.05074 16.977 5.08504C16.9835 5.10383 16.9949 5.12098 16.9999 5.14058C17.0149 5.19623 17.0226 5.25361 17.0227 5.31126V22.1009L23.5693 18.3353V9.75222C23.5693 9.69506 23.5774 9.63708 23.5921 9.58236C23.5979 9.56276 23.6085 9.54561 23.615 9.52683C23.6281 9.49253 23.6396 9.45741 23.6575 9.42556C23.6698 9.40433 23.6878 9.38718 23.7017 9.36758C23.7213 9.34145 23.7377 9.3145 23.7606 9.29163C23.7794 9.27285 23.8031 9.25896 23.8243 9.24263C23.8488 9.22303 23.8701 9.2018 23.8963 9.18628L31.754 4.66773C31.8535 4.61047 31.9663 4.58033 32.081 4.58033C32.1958 4.58033 32.3086 4.61047 32.408 4.66773L40.2642 9.18628C40.292 9.20262 40.3132 9.22303 40.3378 9.24181C40.3582 9.25815 40.3819 9.27285 40.4007 9.29081C40.4236 9.3145 40.4399 9.34145 40.4596 9.36758C40.4743 9.38718 40.4923 9.40433 40.5037 9.42556C40.5225 9.45741 40.5331 9.49253 40.5462 9.52683C40.5536 9.54561 40.5642 9.56276 40.5691 9.58236ZM39.2824 18.3353V10.8841L36.5331 12.4651L32.735 14.6497V22.1009L39.2832 18.3353H39.2824ZM31.4262 31.8141V24.3581L27.6903 26.4896L17.0219 32.572V40.0983L31.4262 31.8141ZM1.30963 6.44232V31.8141L15.7123 40.0975V32.5728L8.18805 28.3189L8.1856 28.3172L8.18233 28.3156C8.15699 28.3009 8.13573 28.2797 8.11202 28.2617C8.09159 28.2454 8.06788 28.2323 8.04989 28.2143L8.04826 28.2119C8.027 28.1915 8.01229 28.1661 7.9943 28.1433C7.97795 28.1212 7.95833 28.1024 7.94525 28.0796L7.94444 28.0771C7.92972 28.0526 7.92073 28.0232 7.9101 27.9955C7.89947 27.971 7.88558 27.9481 7.87904 27.922C7.87086 27.8909 7.86923 27.8575 7.86596 27.8256C7.86269 27.8011 7.85615 27.7766 7.85615 27.7521V10.2079L4.05887 8.02255L1.30963 6.44232ZM8.51178 1.5473L1.96608 5.31126L8.51014 9.07522L15.055 5.31044L8.51014 1.5473H8.51178ZM11.9158 25.0375L15.7131 22.8538V6.44232L12.9639 8.02337L9.16578 10.2079V26.6194L11.9158 25.0375ZM32.081 5.98908L25.5362 9.75304L32.081 13.517L38.6251 9.75222L32.081 5.98908ZM31.4262 14.6497L27.6281 12.4651L24.8789 10.8841V18.3353L28.6762 20.519L31.4262 22.1009V14.6497ZM16.3663 31.4409L25.9662 25.9661L30.7649 23.2303L24.2249 19.4688L16.6949 23.7995L9.83204 27.7464L16.3663 31.4409Z" fill="#FF2D20"/>
</g>
<defs>
<clipPath id="clip0_245_524">
<rect width="40.6643" height="42" fill="white"/>
</clipPath>
</defs>
</svg>
