<svg width="1179" height="1747" viewBox="0 0 1179 1747" fill="none" xmlns="http://www.w3.org/2000/svg">
<path d="M589.547 26.25H1176.22C1177.09 26.25 1177.54 27.2879 1176.95 27.9284L22.7124 1277.69C21.9418 1278.52 20.5976 1277.63 21.0673 1276.6L588.637 26.8365C588.799 26.4793 589.155 26.25 589.547 26.25Z" fill="#E5E5E5" fill-opacity="0.4"/>
<path d="M580.644 0H1176.72C1177.59 0 1178.04 1.03774 1177.45 1.67829L4.71215 1271.94C3.9417 1272.77 2.59733 1271.88 3.06684 1270.85L579.734 0.586627C579.896 0.2294 580.252 0 580.644 0Z" fill="#E5E5E5"/>
<path d="M607.453 1747H20.7848C19.9128 1747 19.4586 1745.96 20.0502 1745.32L1174.29 495.561C1175.06 494.727 1176.4 495.619 1175.93 496.653L608.363 1746.41C608.201 1746.77 607.845 1747 607.453 1747Z" fill="#1138FF" fill-opacity="0.4"/>
<path d="M598.356 1726.5H2.28418C1.41248 1726.5 0.95813 1725.46 1.54944 1724.82L1174.29 454.562C1175.06 453.728 1176.4 454.62 1175.93 455.654L599.266 1725.91C599.104 1726.27 598.748 1726.5 598.356 1726.5Z" fill="#1138FF"/>
</svg>
