<svg width="89" height="19" viewBox="0 0 89 19" fill="none" xmlns="http://www.w3.org/2000/svg">
<path d="M75.9036 18V0.719971H79.0236V18H75.9036ZM77.3916 18V15.528H88.3356V18H77.3916ZM77.3916 10.32V7.89597H87.4956V10.32H77.3916ZM77.3916 3.19197V0.719971H88.0716V3.19197H77.3916Z" fill="url(#paint0_linear_3_463)"/>
<path d="M59.0576 18V0.719971H62.1776V18H59.0576ZM61.3136 9.02397L69.4976 0.719971H73.6976L65.1776 9.02397H61.3136ZM69.8816 18L61.2656 9.02397H65.1776L74.1776 18H69.8816Z" fill="url(#paint1_linear_3_463)"/>
<path d="M48.2831 18.24C47.0351 18.24 45.8831 18.024 44.8271 17.592C43.7711 17.16 42.8511 16.544 42.0671 15.744C41.2991 14.944 40.6991 14 40.2671 12.912C39.8511 11.808 39.6431 10.6 39.6431 9.28798C39.6431 7.54398 40.0111 6.01598 40.7471 4.70398C41.4831 3.37598 42.4991 2.34398 43.7951 1.60798C45.1071 0.85598 46.5951 0.47998 48.2591 0.47998C49.9551 0.47998 51.4511 0.85598 52.7471 1.60798C54.0591 2.34398 55.0831 3.37598 55.8191 4.70398C56.5551 6.03198 56.9231 7.56798 56.9231 9.31198C56.9231 10.624 56.7071 11.824 56.2751 12.912C55.8591 14 55.2591 14.944 54.4751 15.744C53.7071 16.544 52.7951 17.16 51.7391 17.592C50.6831 18.024 49.5311 18.24 48.2831 18.24ZM48.2591 15.696C49.3471 15.696 50.2991 15.424 51.1151 14.88C51.9471 14.336 52.5951 13.584 53.0591 12.624C53.5231 11.648 53.7551 10.528 53.7551 9.26398C53.7551 8.01598 53.5231 6.92798 53.0591 5.99998C52.6111 5.05598 51.9711 4.32798 51.1391 3.81598C50.3231 3.28798 49.3631 3.02398 48.2591 3.02398C47.1711 3.02398 46.2111 3.28798 45.3791 3.81598C44.5631 4.32798 43.9311 5.04798 43.4831 5.97598C43.0351 6.90398 42.8111 7.99998 42.8111 9.26398C42.8111 10.544 43.0351 11.664 43.4831 12.624C43.9471 13.584 44.5871 14.336 45.4031 14.88C46.2351 15.424 47.1871 15.696 48.2591 15.696Z" fill="url(#paint2_linear_3_463)"/>
<path d="M29.5036 18L23.1436 0.719971H26.4076L31.6156 15.792H31.0876L36.2956 0.719971H39.3916L33.0556 18H29.5036Z" fill="url(#paint3_linear_3_463)"/>
<path d="M6.80884 18V0.719971H10.6728L19.0968 15.744L18.2088 15.96V0.719971H21.2328V18H17.3688L8.94484 2.97597L9.83284 2.75997V18H6.80884Z" fill="url(#paint4_linear_3_463)"/>
<path d="M0.955078 18V0.719971H4.07508V18H0.955078Z" fill="url(#paint5_linear_3_463)"/>
<defs>
<linearGradient id="paint0_linear_3_463" x1="-0.245855" y1="-9" x2="92.5394" y2="0.0958938" gradientUnits="userSpaceOnUse">
<stop stop-color="#3D64FF"/>
<stop offset="0.5" stop-color="#EF3DFF"/>
<stop offset="1" stop-color="#FF3D3D"/>
</linearGradient>
<linearGradient id="paint1_linear_3_463" x1="-0.245856" y1="-9" x2="92.5394" y2="0.0958931" gradientUnits="userSpaceOnUse">
<stop stop-color="#3D64FF"/>
<stop offset="0.5" stop-color="#EF3DFF"/>
<stop offset="1" stop-color="#FF3D3D"/>
</linearGradient>
<linearGradient id="paint2_linear_3_463" x1="-0.245856" y1="-9" x2="92.5394" y2="0.0958937" gradientUnits="userSpaceOnUse">
<stop stop-color="#3D64FF"/>
<stop offset="0.5" stop-color="#EF3DFF"/>
<stop offset="1" stop-color="#FF3D3D"/>
</linearGradient>
<linearGradient id="paint3_linear_3_463" x1="-0.245858" y1="-9" x2="92.5394" y2="0.0958937" gradientUnits="userSpaceOnUse">
<stop stop-color="#3D64FF"/>
<stop offset="0.5" stop-color="#EF3DFF"/>
<stop offset="1" stop-color="#FF3D3D"/>
</linearGradient>
<linearGradient id="paint4_linear_3_463" x1="-0.245856" y1="-9" x2="92.5394" y2="0.0958933" gradientUnits="userSpaceOnUse">
<stop stop-color="#3D64FF"/>
<stop offset="0.5" stop-color="#EF3DFF"/>
<stop offset="1" stop-color="#FF3D3D"/>
</linearGradient>
<linearGradient id="paint5_linear_3_463" x1="-0.245856" y1="-9" x2="92.5394" y2="0.0958928" gradientUnits="userSpaceOnUse">
<stop stop-color="#3D64FF"/>
<stop offset="0.5" stop-color="#EF3DFF"/>
<stop offset="1" stop-color="#FF3D3D"/>
</linearGradient>
</defs>
</svg>
