<svg width="42" height="42" viewBox="0 0 42 42" fill="none" xmlns="http://www.w3.org/2000/svg">
<path d="M20.9649 24.486C22.9057 24.486 24.4789 22.9127 24.4789 20.972C24.4789 19.0313 22.9057 17.458 20.9649 17.458C19.0242 17.458 17.4509 19.0313 17.4509 20.972C17.4509 22.9127 19.0242 24.486 20.9649 24.486Z" fill="#00D8FF" fill-opacity="0.9"/>
<path d="M20.9649 29.0222C16.0299 29.0222 11.7179 28.4412 8.49092 27.3352C6.39792 26.6212 4.61992 25.6692 3.35292 24.5842C2.00892 23.4362 1.29492 22.1832 1.29492 20.9722C1.29492 18.6482 3.84292 16.3732 8.11992 14.8892C11.6199 13.6712 16.1839 12.9922 20.9579 12.9922C25.6479 12.9922 30.1489 13.6502 33.6279 14.8542C35.6649 15.5542 37.3799 16.4642 38.5979 17.4722C39.9209 18.5782 40.6209 19.7892 40.6209 20.9722C40.6209 23.3872 37.7719 25.8302 33.1799 27.3492C29.9319 28.4272 25.5919 29.0222 20.9649 29.0222ZM20.9649 14.6722C16.4359 14.6722 11.9559 15.3302 8.67992 16.4712C4.74592 17.8432 2.98192 19.7192 2.98192 20.9722C2.98192 22.2742 4.87892 24.3252 9.03692 25.7462C12.0889 26.7892 16.2189 27.3422 20.9649 27.3422C25.4169 27.3422 29.5679 26.7822 32.6549 25.7532C36.9739 24.3182 38.9479 22.2672 38.9479 20.9722C38.9479 20.3072 38.4439 19.5232 37.5269 18.7602C36.4699 17.8782 34.9299 17.0732 33.0889 16.4362C29.7779 15.3022 25.4729 14.6722 20.9649 14.6722Z" fill="#00D8FF" fill-opacity="0.9"/>
<path d="M12.992 38.4858C12.278 38.4858 11.648 38.3318 11.116 38.0238C9.10697 36.8618 8.40697 33.5158 9.25397 29.0708C9.94697 25.4238 11.641 21.1398 14.028 17.0028C16.373 12.9428 19.187 9.37278 21.966 6.95778C23.59 5.54378 25.235 4.50778 26.719 3.96178C28.336 3.36678 29.736 3.36678 30.758 3.95478C32.851 5.15878 33.544 8.85478 32.564 13.5868C31.871 16.9468 30.219 20.9998 27.909 25.0108C25.445 29.2808 22.785 32.7248 20.216 34.9718C18.55 36.4278 16.835 37.4918 15.267 38.0448C14.448 38.3388 13.678 38.4858 12.992 38.4858ZM14.749 17.4228L15.477 17.8428C13.216 21.7628 11.543 25.9698 10.899 29.3858C10.122 33.4808 10.871 35.9448 11.949 36.5678C12.215 36.7218 12.565 36.8058 12.992 36.8058C14.385 36.8058 16.576 35.9238 19.11 33.7118C21.539 31.5908 24.08 28.2868 26.453 24.1778C28.679 20.3208 30.261 16.4428 30.919 13.2578C31.836 8.79878 31.045 6.06878 29.918 5.41778C29.344 5.08878 28.413 5.13078 27.293 5.54378C25.998 6.01978 24.535 6.95078 23.065 8.23178C20.426 10.5278 17.731 13.9438 15.477 17.8498L14.749 17.4228Z" fill="#00D8FF" fill-opacity="0.9"/>
<path d="M28.938 38.5071C27.034 38.5071 24.619 37.3591 22.099 35.1891C19.285 32.7671 16.422 29.1621 14.028 25.0251C11.676 20.9651 9.99604 16.7441 9.28904 13.1251C8.87604 11.0111 8.79904 9.0721 9.06504 7.5111C9.35904 5.8101 10.052 4.5991 11.081 4.0041C13.167 2.7931 16.716 4.0391 20.328 7.2521C22.89 9.5271 25.578 12.9851 27.895 16.9891C30.366 21.2591 32.025 25.2841 32.683 28.6301C33.11 30.8001 33.18 32.8161 32.879 34.4541C32.557 36.1971 31.829 37.4361 30.779 38.0451C30.254 38.3531 29.631 38.5071 28.938 38.5071ZM15.484 24.1851C17.752 28.1051 20.566 31.6541 23.198 33.9151C26.355 36.6311 28.861 37.2191 29.946 36.5891C31.073 35.9381 31.899 33.2711 31.045 28.9591C30.415 25.7951 28.826 21.9451 26.446 17.8361C24.213 13.9791 21.644 10.6681 19.215 8.5121C15.813 5.4881 13.055 4.8091 11.928 5.4601C11.354 5.7891 10.927 6.6221 10.724 7.7981C10.493 9.1561 10.563 10.8921 10.941 12.8031C11.613 16.2401 13.223 20.2791 15.484 24.1851Z" fill="#00D8FF" fill-opacity="0.9"/>
</svg>
