<svg width="164" height="112" viewBox="0 0 164 112" fill="none" xmlns="http://www.w3.org/2000/svg">
<g clip-path="url(#clip0_2_6)">
<path fill-rule="evenodd" clip-rule="evenodd" d="M82.44 19C66.06 19 55.82 27.1433 51.72 43.43C57.8667 35.29 65.0333 32.2367 73.22 34.27C77.9 35.43 81.22 38.8 84.94 42.53C90.94 48.61 97.94 55.64 113.16 55.64C129.54 55.64 139.78 47.4967 143.88 31.21C137.74 39.3567 130.573 42.41 122.38 40.37C117.7 39.21 114.38 35.84 110.66 32.11C104.64 26 97.67 19 82.44 19ZM51.72 55.64C35.34 55.64 25.1 63.7833 21 80.07C27.1533 71.93 34.32 68.8767 42.5 70.91C47.18 72.07 50.5 75.44 54.22 79.18C60.22 85.25 67.22 92.29 82.44 92.29C98.82 92.29 109.06 84.1467 113.16 67.86C107.02 76 99.8533 79.0467 91.66 77C86.98 75.84 83.66 72.47 79.94 68.74C73.94 62.66 66.94 55.62 51.72 55.62V55.64Z" fill="#06B6D4"/>
</g>
<defs>
<clipPath id="clip0_2_6">
<rect width="122.88" height="73.29" fill="white" transform="translate(21 19)"/>
</clipPath>
</defs>
</svg>
