<svg width="32" height="29" viewBox="0 0 32 29" fill="none" xmlns="http://www.w3.org/2000/svg">
<rect x="17.4545" y="0.646461" width="0.323232" height="5.81818" fill="#2C2C2CAA" fill-opacity="0.3"/>
<rect x="12.2828" y="12.6061" width="0.323232" height="5.81818" fill="#2C2C2CAA" fill-opacity="0.3"/>
<rect x="19.3939" y="17.1313" width="0.323232" height="5.81818" fill="#2C2C2CAA" fill-opacity="0.3"/>
<rect x="7.11108" y="0.969696" width="0.323232" height="5.81818" fill="#2C2C2CAA" fill-opacity="0.3"/>
<rect x="14.5455" y="22.303" width="0.323232" height="5.81818" fill="#2C2C2CAA" fill-opacity="0.3"/>
<rect x="1.29291" y="8.72727" width="0.323232" height="5.81818" fill="#2C2C2CAA" fill-opacity="0.3"/>
<rect x="22.9495" y="21.0101" width="0.323232" height="5.81818" fill="#2C2C2CAA" fill-opacity="0.3"/>
<rect x="5.81818" y="17.7778" width="0.323232" height="5.81818" fill="#2C2C2CAA" fill-opacity="0.3"/>
<rect x="27.1515" width="0.323232" height="5.81818" fill="#2C2C2CAA" fill-opacity="0.3"/>
<rect x="25.697" y="13.7374" width="0.323232" height="5.81818" transform="rotate(90 25.697 13.7374)" fill="#2C2C2CAA" fill-opacity="0.3"/>
<rect x="8.08081" y="9.37374" width="0.323232" height="5.81818" transform="rotate(90 8.08081 9.37374)" fill="#2C2C2CAA" fill-opacity="0.3"/>
<rect x="16.1616" y="3.87878" width="0.323232" height="5.81818" transform="rotate(90 16.1616 3.87878)" fill="#2C2C2CAA" fill-opacity="0.3"/>
<rect x="12.6061" y="22.6263" width="0.323232" height="5.81818" transform="rotate(90 12.6061 22.6263)" fill="#2C2C2CAA" fill-opacity="0.3"/>
<rect x="25.2121" y="8.40404" width="0.323232" height="5.81818" transform="rotate(90 25.2121 8.40404)" fill="#2C2C2CAA" fill-opacity="0.3"/>
<rect x="5.81818" y="1.93939" width="0.323232" height="5.81818" transform="rotate(90 5.81818 1.93939)" fill="#2C2C2CAA" fill-opacity="0.3"/>
<rect x="30.0606" y="10.6667" width="0.323232" height="5.81818" transform="rotate(90 30.0606 10.6667)" fill="#2C2C2CAA" fill-opacity="0.3"/>
<rect x="32" y="20.3636" width="0.323232" height="5.81818" transform="rotate(90 32 20.3636)" fill="#2C2C2CAA" fill-opacity="0.3"/>
<rect x="6.7879" y="26.1818" width="0.323232" height="5.81818" transform="rotate(90 6.7879 26.1818)" fill="#2C2C2CAA" fill-opacity="0.3"/>
<rect x="17.7778" y="9.37374" width="0.323232" height="4.52525" fill="#2C2C2CAA" fill-opacity="0.3"/>
</svg>
